<?xml version="1.0" standalone="no"?>
<!DOCTYPE svg PUBLIC "-//W3C//DTD SVG 20010904//EN"
 "http://www.w3.org/TR/2001/REC-SVG-20010904/DTD/svg10.dtd">
<svg version="1.0" xmlns="http://www.w3.org/2000/svg"
 width="395.000000pt" height="194.000000pt" viewBox="0 0 395.000000 194.000000"
 preserveAspectRatio="xMidYMid meet">

<g transform="translate(0.000000,194.000000) scale(0.100000,-0.100000)"
fill="#000000" stroke="none">
<path d="M1377 1228 c5 -123 7 -128 33 -128 18 0 20 6 20 66 0 57 2 65 18 62
13 -2 18 -15 20 -53 4 -54 15 -75 42 -75 14 0 16 8 13 58 -2 31 -6 67 -9 79
-5 27 -36 38 -64 23 -17 -9 -20 -8 -20 10 0 32 -18 60 -39 60 -16 0 -18 -9
-14 -102z"/>
<path d="M2688 1228 c4 -122 5 -128 32 -128 19 0 20 6 20 103 0 105 -7 127
-40 127 -14 0 -15 -14 -12 -102z"/>
<path d="M837 1313 c-4 -3 -7 -14 -7 -23 0 -11 -11 -20 -29 -23 -16 -3 -36
-13 -45 -22 -19 -19 -21 -66 -4 -83 9 -9 9 -17 -1 -35 -7 -13 -11 -35 -9 -48
3 -22 9 -24 68 -29 36 -3 71 -9 78 -13 18 -12 15 28 -4 47 -10 10 -33 16 -63
16 -52 0 -62 5 -55 25 4 9 17 11 42 8 76 -10 114 66 61 124 l-24 26 22 -6 c28
-6 39 8 23 28 -13 16 -42 20 -53 8z m3 -113 c0 -23 -4 -30 -20 -30 -23 0 -35
22 -26 45 3 8 15 15 26 15 16 0 20 -7 20 -30z"/>
<path d="M614 1304 c-17 -7 -77 -170 -70 -189 9 -23 40 -14 44 13 5 31 53 31
67 0 9 -21 65 -40 65 -23 0 16 -54 181 -63 193 -10 12 -23 14 -43 6z m16 -94
c0 -11 -6 -20 -14 -20 -9 0 -12 7 -9 20 3 11 9 20 14 20 5 0 9 -9 9 -20z"/>
<path d="M1263 1279 c-33 -29 -42 -49 -23 -49 6 0 10 -20 10 -45 0 -64 36 -98
84 -79 25 10 20 41 -6 40 -20 -1 -23 5 -26 42 -3 36 0 42 16 42 10 0 21 3 25
6 11 11 -5 34 -23 34 -11 0 -20 8 -22 19 -3 18 -6 17 -35 -10z"/>
<path d="M1979 1213 c2 -59 8 -101 15 -105 19 -13 86 -9 117 7 71 37 63 158
-12 184 -18 6 -53 11 -78 11 l-46 0 4 -97z m103 40 c20 -18 24 -73 6 -91 -7
-7 -22 -12 -35 -12 -21 0 -23 4 -23 60 0 65 14 77 52 43z"/>
<path d="M938 1259 c-34 -19 -21 -38 21 -32 49 7 63 -12 16 -21 -64 -12 -86
-88 -29 -102 16 -4 31 -1 43 10 16 15 19 15 24 1 4 -8 16 -15 27 -15 18 0 20
6 20 60 0 51 -4 65 -25 85 -25 26 -67 32 -97 14z m72 -94 c0 -9 -7 -18 -16
-22 -18 -7 -39 11 -30 26 11 17 46 13 46 -4z"/>
<path d="M1112 1263 c-7 -2 -17 -13 -22 -24 -15 -28 3 -55 45 -69 46 -15 34
-34 -16 -26 -22 3 -39 3 -39 -1 1 -21 21 -35 56 -40 84 -11 117 71 39 97 -46
15 -46 34 0 27 26 -4 35 -2 35 8 0 27 -59 44 -98 28z"/>
<path d="M1572 1186 c45 -92 46 -122 2 -113 -21 4 -25 1 -22 -17 4 -27 43 -33
68 -11 23 21 84 189 76 210 -9 24 -36 18 -36 -7 -1 -13 -6 -36 -13 -52 l-13
-29 -19 44 c-22 50 -31 59 -62 59 -22 0 -22 -3 19 -84z"/>
<path d="M1738 1260 c-30 -19 -22 -40 12 -34 16 4 37 3 47 -1 14 -5 8 -10 -27
-24 -37 -13 -46 -22 -48 -44 -6 -50 38 -75 71 -42 13 13 16 13 27 0 7 -8 20
-15 29 -15 14 0 15 10 11 70 -3 38 -10 74 -16 80 -16 16 -86 22 -106 10z m72
-95 c0 -16 -27 -32 -37 -22 -3 4 -3 13 0 22 8 20 37 20 37 0z"/>
<path d="M2209 1251 c-34 -28 -34 -104 0 -132 28 -23 69 -24 99 -3 33 23 27
33 -19 31 -26 -1 -44 3 -46 11 -3 8 9 12 41 12 44 0 46 1 46 28 0 33 -8 45
-37 61 -31 16 -57 14 -84 -8z m71 -41 c0 -14 -7 -20 -24 -20 -19 0 -23 4 -19
20 3 11 14 20 24 20 12 0 19 -7 19 -20z"/>
<path d="M2366 1193 c26 -85 34 -96 60 -91 20 4 76 132 67 155 -12 30 -32 10
-44 -42 -14 -61 -23 -63 -34 -8 -9 47 -21 63 -50 63 l-23 0 24 -77z"/>
<path d="M2536 1249 c-21 -16 -26 -29 -26 -64 0 -35 5 -48 26 -64 45 -35 114
-22 114 21 0 17 -3 19 -12 10 -17 -17 -53 -15 -68 3 -11 13 -6 15 39 15 48 0
51 1 51 25 0 33 -42 75 -73 75 -13 0 -36 -9 -51 -21z m72 -42 c3 -12 -3 -17
-22 -17 -25 0 -35 18 -19 34 12 12 38 2 41 -17z"/>
<path d="M2804 1260 c-34 -13 -48 -70 -30 -114 12 -28 21 -36 51 -42 55 -10
89 19 93 78 3 40 -1 49 -24 67 -28 22 -55 25 -90 11z m61 -75 c0 -33 -3 -40
-20 -40 -15 0 -21 8 -23 28 -5 39 5 59 25 55 14 -2 18 -13 18 -43z"/>
<path d="M2950 1161 c0 -83 3 -111 15 -121 25 -20 40 -7 37 33 -3 36 -3 37 26
31 50 -10 81 41 68 111 -10 50 -50 69 -80 39 -15 -14 -17 -14 -22 0 -3 9 -15
16 -25 16 -17 0 -19 -9 -19 -109z m95 50 c9 -30 -5 -72 -24 -69 -16 3 -27 48
-17 74 8 20 34 17 41 -5z"/>
<path d="M3149 1251 c-19 -15 -24 -29 -24 -66 0 -37 5 -51 24 -66 28 -23 69
-24 99 -3 33 23 27 33 -19 31 -26 -1 -44 3 -46 11 -3 8 9 12 41 12 44 0 46 1
46 28 0 33 -8 45 -37 61 -31 16 -57 14 -84 -8z m71 -41 c0 -14 -7 -20 -24 -20
-19 0 -23 4 -19 20 3 11 14 20 24 20 12 0 19 -7 19 -20z"/>
<path d="M3300 1197 c0 -74 9 -97 40 -97 12 0 15 12 15 58 l0 57 38 0 c31 0
37 3 35 19 -5 31 -34 43 -56 23 -17 -16 -20 -16 -25 -2 -4 8 -16 15 -27 15
-18 0 -20 -6 -20 -73z"/>
<path d="M1925 910 c-4 -7 -3 -16 3 -22 14 -14 45 -2 40 15 -6 16 -34 21 -43
7z"/>
<path d="M1528 833 c4 -83 7 -93 27 -93 10 0 15 10 15 30 0 25 4 30 23 30 31
0 67 27 67 50 0 28 -39 50 -90 50 l-46 0 4 -67z m82 17 c0 -13 -7 -20 -20 -20
-13 0 -20 7 -20 20 0 13 7 20 20 20 13 0 20 -7 20 -20z"/>
<path d="M2250 873 c-17 -17 -21 -27 -12 -30 7 -3 12 -21 12 -43 0 -40 18 -64
46 -58 22 4 31 28 10 28 -12 0 -16 10 -16 35 0 24 5 35 15 35 8 0 15 7 15 15
0 8 -7 15 -15 15 -8 0 -15 7 -15 15 0 21 -11 17 -40 -12z"/>
<path d="M1680 807 c4 -49 9 -63 23 -65 14 -3 17 4 17 42 0 43 2 46 26 46 18
0 25 5 22 17 -2 12 -15 17 -48 19 l-45 3 5 -62z"/>
<path d="M1800 850 c-39 -39 -11 -110 43 -110 32 0 57 30 57 67 0 56 -60 83
-100 43z m60 -46 c0 -28 -3 -35 -17 -32 -31 6 -29 68 2 68 11 0 15 -10 15 -36z"/>
<path d="M1928 799 c4 -65 3 -71 -17 -76 -26 -7 -23 -27 5 -31 34 -4 47 14 52
72 6 70 -3 106 -26 106 -16 0 -17 -8 -14 -71z"/>
<path d="M2000 850 c-51 -51 5 -130 74 -104 29 11 18 32 -15 30 -18 0 -34 5
-36 12 -3 8 8 12 37 12 38 0 41 2 35 23 -15 47 -61 61 -95 27z m58 -28 c2 -7
-6 -12 -17 -12 -21 0 -27 11 -14 24 9 9 26 2 31 -12z"/>
<path d="M2130 850 c-51 -51 5 -130 74 -104 25 10 19 32 -7 27 -29 -6 -51 19
-42 48 6 16 13 20 36 17 31 -5 41 15 13 26 -29 11 -54 6 -74 -14z"/>
<path d="M2352 858 c-22 -22 -14 -49 18 -61 17 -6 30 -15 30 -20 0 -5 -13 -7
-30 -3 -22 4 -30 2 -30 -9 0 -20 46 -30 76 -16 39 17 26 71 -18 71 -10 0 -18
5 -18 11 0 7 10 9 25 7 32 -7 42 8 16 21 -26 14 -54 14 -69 -1z"/>
</g>
</svg>
