<?xml version="1.0" encoding="UTF-8"?>
<svg version="1.1" xmlns="http://www.w3.org/2000/svg" width="284" height="178">
<path d="M0 0 C0.81404297 0.54914062 0.81404297 0.54914062 1.64453125 1.109375 C0.93029236 3.49017131 0.21526471 5.87068671 -0.50390625 8.25 C-1.04544371 10.0683735 -1.57310184 11.890982 -2.08203125 13.71875 C-3.43292235 18.49882619 -5.04457266 22.77269226 -7.37890625 27.15625 C-8.4135957 29.2256289 -9.20463451 31.30576976 -9.98046875 33.484375 C-11.35546875 37.109375 -11.35546875 37.109375 -13.35546875 39.109375 C-15.37109375 39.01953125 -15.37109375 39.01953125 -17.35546875 38.109375 C-18.40234375 36.04296875 -18.40234375 36.04296875 -19.10546875 33.546875 C-19.46898437 32.30744141 -19.46898437 32.30744141 -19.83984375 31.04296875 C-20.01 30.40488281 -20.18015625 29.76679687 -20.35546875 29.109375 C-20.87496094 29.62886719 -21.39445313 30.14835937 -21.9296875 30.68359375 C-22.62707031 31.38097656 -23.32445312 32.07835937 -24.04296875 32.796875 C-25.13931641 33.89515625 -25.13931641 33.89515625 -26.2578125 35.015625 C-27.86416335 36.6189845 -29.48227348 38.21057053 -31.10546875 39.796875 C-33.43944272 42.11052533 -33.43944272 42.11052533 -35.54296875 44.921875 C-36.14109375 45.64375 -36.73921875 46.365625 -37.35546875 47.109375 C-38.01546875 47.109375 -38.67546875 47.109375 -39.35546875 47.109375 C-39.59910156 47.67269531 -39.84273438 48.23601563 -40.09375 48.81640625 C-41.59950159 51.55286502 -43.3798511 53.54440309 -45.54296875 55.796875 C-46.27902344 56.58449219 -47.01507813 57.37210938 -47.7734375 58.18359375 C-51.17929771 60.72381929 -53.09646968 61.14014176 -57.35546875 61.109375 C-60.65526025 60.06082597 -63.65638105 58.565615 -66.73046875 56.984375 C-67.5296875 56.5925 -68.32890625 56.200625 -69.15234375 55.796875 C-74.01882797 53.3872566 -78.70826206 50.77861226 -83.33447266 47.93408203 C-85.85836364 46.90415889 -86.84310561 47.1243229 -89.35546875 48.109375 C-91.28217846 49.12885832 -91.28217846 49.12885832 -93.17578125 50.39453125 C-93.87574219 50.84248047 -94.57570313 51.29042969 -95.296875 51.75195312 C-96.01746094 52.22052734 -96.73804688 52.68910156 -97.48046875 53.171875 C-98.91794399 54.10432576 -100.35793362 55.03291535 -101.80078125 55.95703125 C-102.43516113 56.36961182 -103.06954102 56.78219238 -103.72314453 57.20727539 C-105.35546875 58.109375 -105.35546875 58.109375 -107.35546875 58.109375 C-107.35546875 58.769375 -107.35546875 59.429375 -107.35546875 60.109375 C-108.34546875 60.109375 -109.33546875 60.109375 -110.35546875 60.109375 C-110.85046875 61.099375 -110.85046875 61.099375 -111.35546875 62.109375 C-113.69114746 63.62440984 -116.03899486 64.95565911 -118.54296875 66.171875 C-120.53369114 67.08546162 -120.53369114 67.08546162 -122.35546875 69.109375 C-123.77433029 69.95400181 -125.2147358 70.76286193 -126.66796875 71.546875 C-127.46847656 71.98515625 -128.26898438 72.4234375 -129.09375 72.875 C-129.84011719 73.28234375 -130.58648437 73.6896875 -131.35546875 74.109375 C-135.03790221 75.97289774 -135.03790221 75.97289774 -137.35546875 79.109375 C-139.23676749 80.05002437 -141.12074771 80.98578952 -143.01953125 81.890625 C-146.36230775 83.6346823 -149.39298342 85.7699254 -152.47265625 87.9375 C-154.35546875 89.109375 -154.35546875 89.109375 -156.35546875 89.109375 C-156.85046875 90.099375 -156.85046875 90.099375 -157.35546875 91.109375 C-159.33435836 91.83631404 -161.33501433 92.50753751 -163.35546875 93.109375 C-165.41796875 91.359375 -165.41796875 91.359375 -167.35546875 89.109375 C-167.41796875 87.109375 -167.41796875 87.109375 -166.35546875 85.109375 C-163.70707425 82.67006428 -161.78222985 81.2516287 -158.35546875 80.109375 C-157.86046875 79.59375 -157.36546875 79.078125 -156.85546875 78.546875 C-155.35546875 77.109375 -155.35546875 77.109375 -152.35546875 77.109375 C-151.86046875 76.119375 -151.86046875 76.119375 -151.35546875 75.109375 C-150.02213542 74.44270833 -148.68880208 73.77604167 -147.35546875 73.109375 C-147.02546875 72.449375 -146.69546875 71.789375 -146.35546875 71.109375 C-144.0287501 70.09407959 -141.69512405 69.09449302 -139.35546875 68.109375 C-138.36546875 67.119375 -138.36546875 67.119375 -137.35546875 66.109375 C-136.34484375 65.614375 -135.33421875 65.119375 -134.29296875 64.609375 C-131.26940193 63.43157388 -131.26940193 63.43157388 -130.35546875 61.109375 C-126.78957187 59.16434034 -123.14719308 57.55915195 -119.35546875 56.109375 C-119.35546875 55.449375 -119.35546875 54.789375 -119.35546875 54.109375 C-113.60546875 51.109375 -113.60546875 51.109375 -111.35546875 51.109375 C-110.86046875 50.119375 -110.86046875 50.119375 -110.35546875 49.109375 C-108.53385767 47.95228765 -106.67228741 46.85766689 -104.79296875 45.796875 C-100.49594456 43.36325229 -96.36511684 40.85529704 -92.3671875 37.95703125 C-88.08085821 36.15094687 -84.29830816 36.74097338 -80.06640625 38.39453125 C-78.96554688 38.98105469 -77.8646875 39.56757812 -76.73046875 40.171875 C-76.13580811 40.48189453 -75.54114746 40.79191406 -74.9284668 41.11132812 C-71.81198782 42.74625627 -68.73576418 44.4507311 -65.6640625 46.16796875 C-64.51035156 46.80863281 -63.35664063 47.44929688 -62.16796875 48.109375 C-60.59982422 49.0065625 -60.59982422 49.0065625 -59 49.921875 C-56.33302985 51.4780584 -56.33302985 51.4780584 -53.35546875 50.109375 C-51.74302489 48.51871214 -51.74302489 48.51871214 -50.16796875 46.546875 C-45.6414198 41.20688702 -40.67191786 36.3719532 -35.66796875 31.484375 C-33.06004612 28.80596797 -30.71482999 26.0080188 -28.35546875 23.109375 C-28.98195312 22.95082031 -29.6084375 22.79226562 -30.25390625 22.62890625 C-37.01241558 20.69942646 -37.01241558 20.69942646 -38.91796875 17.421875 C-39.13453125 16.2771875 -39.13453125 16.2771875 -39.35546875 15.109375 C-38.55109375 14.861875 -37.74671875 14.614375 -36.91796875 14.359375 C-33.2643732 13.07741165 -29.81492061 11.54796311 -26.30859375 9.9140625 C-24.35546875 9.109375 -24.35546875 9.109375 -22.35546875 9.109375 C-22.35546875 8.449375 -22.35546875 7.789375 -22.35546875 7.109375 C-21.78957031 6.98820312 -21.22367188 6.86703125 -20.640625 6.7421875 C-19.90714844 6.57460938 -19.17367187 6.40703125 -18.41796875 6.234375 C-17.68707031 6.07195313 -16.95617187 5.90953125 -16.203125 5.7421875 C-14.14846581 5.27975977 -14.14846581 5.27975977 -13.35546875 3.109375 C-10.9921875 1.96875 -10.9921875 1.96875 -8.04296875 0.859375 C-7.07746094 0.48296875 -6.11195313 0.1065625 -5.1171875 -0.28125 C-2.35546875 -0.890625 -2.35546875 -0.890625 0 0 Z " fill="#010101" transform="translate(225.35546875,13.890625)"/>
<path d="M0 0 C0.66 0 1.32 0 2 0 C3.13508533 10.362609 3.14649177 20.66612701 3.1328125 31.07421875 C3.1334873 32.89313266 3.13445879 34.71204648 3.13571167 36.53096008 C3.13717624 40.31548941 3.13507154 44.09999494 3.13037109 47.88452148 C3.1246294 52.74476572 3.12798841 57.60495526 3.13394356 62.46519756 C3.1375446 66.20795612 3.13641349 69.95070153 3.13381577 73.69346046 C3.13314754 75.48730285 3.13397129 77.28114641 3.13629532 79.07498741 C3.13881914 81.56654447 3.1349872 84.05801034 3.12939453 86.54956055 C3.13141876 87.29387329 3.13344299 88.03818604 3.13552856 88.80505371 C3.11427226 93.88572774 3.11427226 93.88572774 2 95 C0.29227642 95.08713831 -1.41898649 95.10700007 -3.12890625 95.09765625 C-4.68061523 95.09282227 -4.68061523 95.09282227 -6.26367188 95.08789062 C-7.35228516 95.07951172 -8.44089844 95.07113281 -9.5625 95.0625 C-11.2012207 95.05573242 -11.2012207 95.05573242 -12.87304688 95.04882812 C-15.58208495 95.03699826 -18.29101599 95.02051543 -21 95 C-21.02315469 85.79456595 -21.04093108 76.58914191 -21.05181217 67.38368511 C-21.05703414 63.10937663 -21.06411938 58.83508805 -21.07543945 54.56079102 C-21.08629265 50.43704342 -21.09228202 46.31331499 -21.09487724 42.18955421 C-21.09672709 40.61506664 -21.1003393 39.04058013 -21.10573006 37.46610069 C-21.11297274 35.26342871 -21.11398957 33.06083624 -21.11352539 30.8581543 C-21.115746 29.60350876 -21.11796661 28.34886322 -21.12025452 27.05619812 C-20.99348361 23.83438976 -20.84706722 21.81465393 -18.46875 19.52734375 C-17.8190625 19.00269531 -17.169375 18.47804688 -16.5 17.9375 C-12.20184796 14.31432851 -8.56091136 10.28105108 -4.8828125 6.0390625 C-3 4 -3 4 -1 3 C-0.67 2.01 -0.34 1.02 0 0 Z " fill="#000000" transform="translate(196,70)"/>
<path d="M0 0 C0.99 0 1.98 0 3 0 C3 0.66 3 1.32 3 2 C4.299375 2.433125 4.299375 2.433125 5.625 2.875 C8.75 3.91666667 11.875 4.95833333 15 6 C15 6.66 15 7.32 15 8 C17.64 8.66 20.28 9.32 23 10 C23 34.42 23 58.84 23 84 C15.41 84 7.82 84 0 84 C0 56.28 0 28.56 0 0 Z " fill="#000000" transform="translate(142,81)"/>
<path d="M0 0 C0 26.73 0 53.46 0 81 C-7.59 81 -15.18 81 -23 81 C-23.271812 72.40237733 -23.49162411 63.80812553 -23.62174606 55.20735168 C-23.68422045 51.21293804 -23.76882944 47.22162969 -23.90527344 43.22900391 C-24.03628992 39.37076732 -24.1075266 35.51550247 -24.13852692 31.6552124 C-24.16059481 30.18765447 -24.20370022 28.72024843 -24.26876068 27.25396729 C-24.4653469 22.63712317 -24.42012978 18.45578683 -23 14 C-19.43283191 10.35962542 -15.54869274 8.22134321 -11 6 C-7.43350565 3.97880094 -7.43350565 3.97880094 -4.375 1.3125 C-3 0 -3 0 0 0 Z " fill="#000000" transform="translate(132,84)"/>
<path d="M0 0 C2.1875 0.3125 2.1875 0.3125 4 1 C4 1.66 4 2.32 4 3 C3.34 3 2.68 3 2 3 C2.0721875 3.81412354 2.144375 4.62824707 2.21875 5.46704102 C2.98922902 14.98499844 3.09030649 24.39618967 3 33.9375 C2.97316809 36.82161103 2.95334268 39.70565379 2.9375 42.58984375 C2.92589844 43.84659912 2.91429688 45.10335449 2.90234375 46.39819336 C3.00014111 50.00520447 3.41871253 53.44161672 4 57 C3.34 57 2.68 57 2 57 C2 57.99 2 58.98 2 60 C-5.59 60 -13.18 60 -21 60 C-21.25788945 54.1093965 -21.49992271 48.22249625 -21.7019043 42.33032227 C-21.77531994 40.32703151 -21.8579244 38.3240553 -21.94995117 36.3215332 C-22.08076959 33.43995383 -22.17831477 30.55885268 -22.26953125 27.67578125 C-22.31721146 26.78288895 -22.36489166 25.88999664 -22.41401672 24.970047 C-22.5239492 20.44040004 -22.52039102 18.65311461 -19.60498047 14.99414062 C-18.74533691 14.33607422 -17.88569336 13.67800781 -17 13 C-16.35675781 12.47792969 -15.71351562 11.95585938 -15.05078125 11.41796875 C-10.22222222 8 -10.22222222 8 -8 8 C-8 7.34 -8 6.68 -8 6 C-7.01 5.67 -6.02 5.34 -5 5 C-3.04123994 3.10891573 -3.04123994 3.10891573 -1.625 1.3125 C-1.08875 0.879375 -0.5525 0.44625 0 0 Z " fill="#000000" transform="translate(96,105)"/>
<path d="" fill="#000000" transform="translate(0,0)"/>
<path d="" fill="#000000" transform="translate(0,0)"/>
<path d="" fill="#000000" transform="translate(0,0)"/>
<path d="" fill="#000000" transform="translate(0,0)"/>
<path d="" fill="#000000" transform="translate(0,0)"/>
</svg>
